<svg width="40" height="40" viewBox="0 0 40 40" fill="none" xmlns="http://www.w3.org/2000/svg">
<g id="Group">
<g id="Group_2">
<path id="Path" d="M12.4998 15.1333V17.6333" stroke="#F67ACB" stroke-width="2.5" stroke-linecap="round" stroke-linejoin="round"/>
<path id="Path_2" d="M27.4998 15.1333V17.6333" stroke="#F67ACB" stroke-width="2.5" stroke-linecap="round" stroke-linejoin="round"/>
<path id="Path_3" d="M18.3335 22.6617H19.1668C20.0868 22.6617 20.8335 21.915 20.8335 20.995V15.1617" stroke="#F67ACB" stroke-width="2.5" stroke-linecap="round" stroke-linejoin="round"/>
<path id="Path_4" d="M25.4031 26.9283C22.4198 29.9117 17.5815 29.9117 14.5981 26.9283" stroke="#F67ACB" stroke-width="2.5" stroke-linecap="round" stroke-linejoin="round"/>
<path id="Path_5" d="M12.6467 5H8.33333C6.49167 5 5 6.49167 5 8.33333V12.6467" stroke="#F67ACB" stroke-width="2.5" stroke-linecap="round" stroke-linejoin="round"/>
<path id="Path_6" d="M27.3535 35H31.6668C33.5085 35 35.0002 33.5083 35.0002 31.6667V27.3533" stroke="#F67ACB" stroke-width="2.5" stroke-linecap="round" stroke-linejoin="round"/>
<path id="Path_7" d="M5 27.3533V31.6667C5 33.5083 6.49167 35 8.33333 35H12.6467" stroke="#F67ACB" stroke-width="2.5" stroke-linecap="round" stroke-linejoin="round"/>
<path id="Path_8" d="M35.0002 12.6467V8.33333C35.0002 6.49167 33.5085 5 31.6668 5H27.3535" stroke="#F67ACB" stroke-width="2.5" stroke-linecap="round" stroke-linejoin="round"/>
</g>
</g>
</svg>
